<svg width="200" height="60" viewBox="0 0 200 60" fill="none" xmlns="http://www.w3.org/2000/svg">
<rect x="0.5" y="0.5" width="199" height="59" rx="4.5" stroke="#9747FF" stroke-dasharray="10 5"/>
<path fill-rule="evenodd" clip-rule="evenodd" d="M143 30C143 32.1217 142.157 34.1566 140.657 35.6569C139.157 37.1571 137.122 38 135 38C132.878 38 130.843 37.1571 129.343 35.6569C127.843 34.1566 127 32.1217 127 30C127 27.8783 127.843 25.8434 129.343 24.3431C130.843 22.8429 132.878 22 135 22C137.122 22 139.157 22.8429 140.657 24.3431C142.157 25.8434 143 27.8783 143 30ZM135 25C135.199 25 135.39 25.079 135.53 25.2197C135.671 25.3603 135.75 25.5511 135.75 25.75V30.25C135.75 30.4489 135.671 30.6397 135.53 30.7803C135.39 30.921 135.199 31 135 31C134.801 31 134.61 30.921 134.47 30.7803C134.329 30.6397 134.25 30.4489 134.25 30.25V25.75C134.25 25.5511 134.329 25.3603 134.47 25.2197C134.61 25.079 134.801 25 135 25ZM135 35C135.265 35 135.52 34.8946 135.707 34.7071C135.895 34.5196 136 34.2652 136 34C136 33.7348 135.895 33.4804 135.707 33.2929C135.52 33.1054 135.265 33 135 33C134.735 33 134.48 33.1054 134.293 33.2929C134.105 33.4804 134 33.7348 134 34C134 34.2652 134.105 34.5196 134.293 34.7071C134.48 34.8946 134.735 35 135 35Z" fill="#EF4444"/>
<path fill-rule="evenodd" clip-rule="evenodd" d="M97.8342 22.5025C98.7967 20.8358 101.203 20.8358 102.165 22.5025L108.294 33.1258C109.256 34.7925 108.052 36.8758 106.128 36.8758H93.8708C91.9467 36.8758 90.7442 34.7925 91.7058 33.1258L97.8333 22.5025H97.8342ZM100 26.875C100.166 26.875 100.325 26.9409 100.442 27.0581C100.559 27.1753 100.625 27.3342 100.625 27.5V30.625C100.625 30.7908 100.559 30.9497 100.442 31.0669C100.325 31.1842 100.166 31.25 100 31.25C99.8342 31.25 99.6753 31.1842 99.558 31.0669C99.4408 30.9497 99.375 30.7908 99.375 30.625V27.5C99.375 27.3342 99.4408 27.1753 99.558 27.0581C99.6753 26.9409 99.8342 26.875 100 26.875ZM100 33.75C100.166 33.75 100.325 33.6842 100.442 33.5669C100.559 33.4497 100.625 33.2908 100.625 33.125C100.625 32.9592 100.559 32.8003 100.442 32.6831C100.325 32.5659 100.166 32.5 100 32.5C99.8342 32.5 99.6753 32.5659 99.558 32.6831C99.4408 32.8003 99.375 32.9592 99.375 33.125C99.375 33.2908 99.4408 33.4497 99.558 33.5669C99.6753 33.6842 99.8342 33.75 100 33.75Z" fill="#F97316"/>
<path fill-rule="evenodd" clip-rule="evenodd" d="M73 30C73 32.1217 72.1571 34.1566 70.6569 35.6569C69.1566 37.1571 67.1217 38 65 38C62.8783 38 60.8434 37.1571 59.3431 35.6569C57.8429 34.1566 57 32.1217 57 30C57 27.8783 57.8429 25.8434 59.3431 24.3431C60.8434 22.8429 62.8783 22 65 22C67.1217 22 69.1566 22.8429 70.6569 24.3431C72.1571 25.8434 73 27.8783 73 30ZM66 26C66 26.2652 65.8946 26.5196 65.7071 26.7071C65.5196 26.8946 65.2652 27 65 27C64.7348 27 64.4804 26.8946 64.2929 26.7071C64.1054 26.5196 64 26.2652 64 26C64 25.7348 64.1054 25.4804 64.2929 25.2929C64.4804 25.1054 64.7348 25 65 25C65.2652 25 65.5196 25.1054 65.7071 25.2929C65.8946 25.4804 66 25.7348 66 26ZM64 29C63.8011 29 63.6103 29.079 63.4697 29.2197C63.329 29.3603 63.25 29.5511 63.25 29.75C63.25 29.9489 63.329 30.1397 63.4697 30.2803C63.6103 30.421 63.8011 30.5 64 30.5H64.253C64.2904 30.5 64.3273 30.5084 64.3611 30.5246C64.3948 30.5408 64.4245 30.5643 64.4479 30.5935C64.4713 30.6227 64.4879 30.6567 64.4964 30.6932C64.5049 30.7296 64.5051 30.7675 64.497 30.804L64.038 32.87C63.9811 33.1259 63.9824 33.3913 64.0418 33.6466C64.1012 33.902 64.2172 34.1407 64.3813 34.3452C64.5453 34.5496 64.7532 34.7146 64.9896 34.828C65.226 34.9413 65.4848 35.0001 65.747 35H66C66.1989 35 66.3897 34.921 66.5303 34.7803C66.671 34.6397 66.75 34.4489 66.75 34.25C66.75 34.0511 66.671 33.8603 66.5303 33.7197C66.3897 33.579 66.1989 33.5 66 33.5H65.747C65.7096 33.5 65.6727 33.4916 65.6389 33.4754C65.6052 33.4592 65.5755 33.4357 65.5521 33.4065C65.5287 33.3773 65.5121 33.3433 65.5036 33.3068C65.4951 33.2704 65.4949 33.2325 65.503 33.196L65.962 31.13C66.0189 30.8741 66.0176 30.6087 65.9582 30.3534C65.8988 30.098 65.7828 29.8593 65.6187 29.6548C65.4547 29.4504 65.2468 29.2854 65.0104 29.172C64.774 29.0587 64.5152 28.9999 64.253 29H64Z" fill="#3B82F6"/>
<path fill-rule="evenodd" clip-rule="evenodd" d="M30 38C32.1217 38 34.1566 37.1571 35.6569 35.6569C37.1571 34.1566 38 32.1217 38 30C38 27.8783 37.1571 25.8434 35.6569 24.3431C34.1566 22.8429 32.1217 22 30 22C27.8783 22 25.8434 22.8429 24.3431 24.3431C22.8429 25.8434 22 27.8783 22 30C22 32.1217 22.8429 34.1566 24.3431 35.6569C25.8434 37.1571 27.8783 38 30 38ZM33.857 28.191C33.9149 28.1113 33.9566 28.0209 33.9796 27.9251C34.0026 27.8293 34.0065 27.7299 33.991 27.6326C33.9756 27.5353 33.9412 27.442 33.8897 27.358C33.8382 27.274 33.7707 27.2009 33.691 27.143C33.6113 27.0851 33.5209 27.0434 33.4251 27.0204C33.3293 26.9974 33.2299 26.9935 33.1326 27.009C33.0353 27.0244 32.942 27.0588 32.858 27.1103C32.774 27.1618 32.7009 27.2293 32.643 27.309L29.16 32.099L27.28 30.219C27.2108 30.1474 27.128 30.0903 27.0365 30.051C26.945 30.0118 26.8465 29.9911 26.7469 29.9903C26.6474 29.9895 26.5486 30.0085 26.4565 30.0463C26.3643 30.084 26.2806 30.1398 26.2102 30.2102C26.1398 30.2807 26.0842 30.3644 26.0465 30.4566C26.0088 30.5488 25.9899 30.6476 25.9908 30.7472C25.9917 30.8467 26.0125 30.9451 26.0518 31.0366C26.0912 31.1281 26.1483 31.2108 26.22 31.28L28.72 33.78C28.7966 33.8567 28.889 33.9158 28.9906 33.9534C29.0923 33.9909 29.2009 34.006 29.309 33.9975C29.4171 33.9891 29.522 33.9573 29.6166 33.9044C29.7112 33.8515 29.7932 33.7787 29.857 33.691L33.857 28.191Z" fill="#22C55E"/>
<path opacity="0.1" d="M170 22.5V25" stroke="#6F6F6F" stroke-width="1.33" stroke-linecap="round" stroke-linejoin="round"/>
<path opacity="0.2" d="M166.25 23.505L167.5 25.67" stroke="#6F6F6F" stroke-width="1.33" stroke-linecap="round" stroke-linejoin="round"/>
<path opacity="0.3" d="M163.505 26.25L165.67 27.5" stroke="#6F6F6F" stroke-width="1.33" stroke-linecap="round" stroke-linejoin="round"/>
<path opacity="0.4" d="M162.5 30H165" stroke="#6F6F6F" stroke-width="1.33" stroke-linecap="round" stroke-linejoin="round"/>
<path opacity="0.5" d="M163.505 33.75L165.67 32.5" stroke="#6F6F6F" stroke-width="1.33" stroke-linecap="round" stroke-linejoin="round"/>
<path opacity="0.55" d="M166.25 36.495L167.5 34.33" stroke="#6F6F6F" stroke-width="1.33" stroke-linecap="round" stroke-linejoin="round"/>
<path opacity="0.6" d="M170 37.5V35" stroke="#6F6F6F" stroke-width="1.33" stroke-linecap="round" stroke-linejoin="round"/>
<path opacity="0.65" d="M173.75 36.495L172.5 34.33" stroke="#6F6F6F" stroke-width="1.33" stroke-linecap="round" stroke-linejoin="round"/>
<path opacity="0.7" d="M176.495 33.75L174.33 32.5" stroke="#6F6F6F" stroke-width="1.33" stroke-linecap="round" stroke-linejoin="round"/>
<path opacity="0.8" d="M177.5 30H175" stroke="#6F6F6F" stroke-width="1.33" stroke-linecap="round" stroke-linejoin="round"/>
<path opacity="0.9" d="M176.495 26.2502L174.33 27.5001" stroke="#6F6F6F" stroke-width="1.33" stroke-linecap="round" stroke-linejoin="round"/>
<path d="M173.75 23.5048L172.5 25.6699" stroke="#6F6F6F" stroke-width="1.33" stroke-linecap="round" stroke-linejoin="round"/>
</svg>
